<svg width="116" height="75" viewBox="0 0 116 75" fill="none" xmlns="http://www.w3.org/2000/svg">
<path d="M75.6612 43.431C72.8064 46.7504 69.8064 50.265 66.9516 50.265C64.0968 50.265 62.6848 48.3671 61.4355 46.9344V30.3399C65.1453 30.1466 68.0645 26.8213 69.6613 24.7838L71.1613 22.8801L70.7742 22.5872C67.6774 25.9554 66.6613 27.1758 65.0161 27.1758C62.2096 27.1758 57.5645 20 53.0161 20C47.2581 20 43.3871 26.3459 43.3871 29.1283C43.3871 32.6918 48.6129 34.9372 51.9032 37.2803L50.4516 39.1841C49.1452 40.9414 41.1613 52.9986 40 54.7559L40.4355 55L41.5 53.6332C42.2258 52.6569 45.5645 48.3124 48.3226 48.3124C51.7097 48.3124 60.9032 54.0237 63.6613 54.0237C66.4193 54.0237 72.4193 49.1911 76 43.7238L75.6612 43.431ZM48.4193 44.8954C51.129 40.9414 53.2097 38.159 56.0645 34.0098V33.8145L50.5968 30.5927C47.9839 29.0307 46.2903 27.8103 46.2903 26.053C46.2903 24.2957 47.8387 23.2218 49.7258 23.2218C53.754 23.2218 56.9088 28.5811 59.7903 30.005V45.4616C57.9008 44.2984 55.5042 43.431 53.4516 43.431C51.399 43.431 50.2097 43.8703 48.4193 44.8954Z" fill="#FDFDFD"/>
</svg>
