<svg width="592" height="566" viewBox="0 0 592 566" fill="none" xmlns="http://www.w3.org/2000/svg">
<path d="M585.937 378.912C539.072 432.592 489.822 489.429 442.955 489.429C396.089 489.429 372.909 458.737 352.399 435.567V167.211C413.302 164.085 461.226 110.311 487.439 77.3615L512.065 46.5747L505.709 41.8382C454.871 96.3066 438.189 116.042 411.181 116.042C365.108 116.042 288.85 0 214.181 0C119.653 0 56.1048 102.622 56.1048 147.618C56.1048 205.244 141.895 241.556 195.911 279.448L172.08 310.234C150.633 338.653 19.5645 533.634 0.5 562.053L7.64916 566L25.125 543.897C37.0403 528.109 91.8509 457.852 137.129 457.852C192.734 457.852 343.661 550.212 388.939 550.212C434.217 550.212 532.717 472.062 591.5 383.648L585.937 378.912ZM138.717 402.594C183.202 338.652 217.359 293.657 264.226 226.558V223.4L174.463 171.3C131.569 146.039 103.766 126.304 103.766 97.8857C103.766 69.4674 129.186 52.1004 160.166 52.1004C226.295 52.1004 278.087 138.769 325.39 161.795V411.751C294.372 392.94 255.027 378.912 221.33 378.912C187.634 378.912 168.109 386.017 138.717 402.594Z" fill="#FDFDFD"/>
</svg>
